<svg viewBox="0 0 512 512" xmlns="http://www.w3.org/2000/svg" fill="none">
  <rect width="512" height="512" rx="112" fill="#EF4444" />
  <g fill="#ffffff" fill-opacity="0.42">
    <path d="M244 250C186 224 120 220 70 176c6 44 30 80 74 100-30-6-58 0-82 18 44 6 84 20 118 40 0-34 24-64 64-64-40-16-72-38-100-60Z" />
    <g transform="translate(512,0) scale(-1,1)">
      <path d="M244 250C186 224 120 220 70 176c6 44 30 80 74 100-30-6-58 0-82 18 44 6 84 20 118 40 0-34 24-64 64-64-40-16-72-38-100-60Z" />
    </g>
  </g>
  <g fill="#ffffff">
    <path d="M234 188h44l8 20-8 148c-1 20 4 39 17 56l15 20H221l15-20c13-17 18-36 17-56l-8-148 8-20Z" />
    <path d="M256 44 306 86 296 150 256 190 216 150 206 86Z" />
  </g>
  <g stroke="#EF4444" stroke-width="8" stroke-linejoin="round" stroke-linecap="round" fill="none">
    <path d="M206 86 306 86" />
    <path d="M256 44 216 150" />
    <path d="M256 44 296 150" />
  </g>
</svg>
